<?xml version="1.0" encoding="UTF-8"?>
<svg width="100px" height="100px" viewBox="0 0 100 100" version="1.1" xmlns="http://www.w3.org/2000/svg" xmlns:xlink="http://www.w3.org/1999/xlink">
  <title>Calculator</title>
  <g stroke="none" stroke-width="1" fill="none" fill-rule="evenodd">
    <rect fill="#F0F9FF" x="0" y="0" width="100" height="100" rx="8"></rect>
    <rect stroke="#3B82F6" stroke-width="3" fill="#FFFFFF" x="20" y="15" width="60" height="70" rx="6"></rect>
    <rect fill="#3B82F6" x="30" y="25" width="40" height="15" rx="2"></rect>
    <rect fill="#E5E7EB" x="30" y="45" width="12" height="10" rx="2"></rect>
    <rect fill="#E5E7EB" x="45" y="45" width="12" height="10" rx="2"></rect>
    <rect fill="#E5E7EB" x="60" y="45" width="12" height="10" rx="2"></rect>
    <rect fill="#E5E7EB" x="30" y="60" width="12" height="10" rx="2"></rect>
    <rect fill="#E5E7EB" x="45" y="60" width="12" height="10" rx="2"></rect>
    <rect fill="#E5E7EB" x="60" y="60" width="12" height="10" rx="2"></rect>
    <rect fill="#E5E7EB" x="30" y="75" width="12" height="10" rx="2"></rect>
    <rect fill="#E5E7EB" x="45" y="75" width="12" height="10" rx="2"></rect>
    <rect fill="#E5E7EB" x="60" y="75" width="12" height="10" rx="2"></rect>
  </g>
</svg>