<?xml version="1.0" encoding="UTF-8"?>
<svg width="512" height="512" viewBox="0 0 512 512" fill="none" xmlns="http://www.w3.org/2000/svg">
  <rect width="512" height="512" rx="128" fill="#2563EB"/>
  <path d="M256 128C184.471 128 128 184.471 128 256C128 327.529 184.471 384 256 384C327.529 384 384 327.529 384 256C384 184.471 327.529 128 256 128ZM256 352C202.981 352 160 309.019 160 256C160 202.981 202.981 160 256 160C309.019 160 352 202.981 352 256C352 309.019 309.019 352 256 352Z" fill="white"/>
  <path d="M256 192C238.327 192 224 206.327 224 224C224 241.673 238.327 256 256 256C273.673 256 288 241.673 288 224C288 206.327 273.673 192 256 192Z" fill="white"/>
  <path d="M368 256H352C352 309.019 309.019 352 256 352V368C317.856 368 368 317.856 368 256Z" fill="white"/>
  <path d="M256 144V160C309.019 160 352 202.981 352 256H368C368 194.144 317.856 144 256 144Z" fill="white"/>
</svg>