<svg width="100" height="100" viewBox="0 0 100 100" fill="none" xmlns="http://www.w3.org/2000/svg">
  <rect width="100" height="100" rx="10" fill="#22D3EE" fill-opacity="0.1"/>
  <rect x="20" y="15" width="60" height="70" rx="5" fill="#FFFFFF" stroke="#22D3EE" stroke-width="2"/>
  <rect x="25" y="20" width="50" height="15" rx="2" fill="#E0FFFF"/>
  <rect x="25" y="40" width="10" height="10" rx="2" fill="#22D3EE" fill-opacity="0.3"/>
  <rect x="45" y="40" width="10" height="10" rx="2" fill="#22D3EE" fill-opacity="0.3"/>
  <rect x="65" y="40" width="10" height="10" rx="2" fill="#22D3EE" fill-opacity="0.3"/>
  <rect x="25" y="55" width="10" height="10" rx="2" fill="#22D3EE" fill-opacity="0.3"/>
  <rect x="45" y="55" width="10" height="10" rx="2" fill="#22D3EE" fill-opacity="0.3"/>
  <rect x="65" y="55" width="10" height="10" rx="2" fill="#22D3EE" fill-opacity="0.3"/>
  <rect x="25" y="70" width="10" height="10" rx="2" fill="#22D3EE" fill-opacity="0.3"/>
  <rect x="45" y="70" width="10" height="10" rx="2" fill="#22D3EE" fill-opacity="0.3"/>
  <rect x="65" y="70" width="10" height="10" rx="2" fill="#22D3EE" fill-opacity="0.3"/>
</svg>