<?xml version="1.0" encoding="UTF-8"?>
<svg width="1200px" height="675px" viewBox="0 0 1200 675" version="1.1" xmlns="http://www.w3.org/2000/svg">
    <title>Dashboard Screenshot</title>
    <g stroke="none" stroke-width="1" fill="none" fill-rule="evenodd">
        <rect fill="#F9FAFB" x="0" y="0" width="1200" height="675"></rect>
        <!-- Dashboard Header -->
        <rect fill="#FFFFFF" x="0" y="0" width="1200" height="60"></rect>
        <rect fill="#4F46E5" x="20" y="20" width="40" height="20" rx="4"></rect>
        <rect fill="#E5E7EB" x="1050" y="20" width="30" height="20" rx="10"></rect>
        <rect fill="#E5E7EB" x="1100" y="20" width="30" height="20" rx="10"></rect>
        <rect fill="#E5E7EB" x="1150" y="20" width="30" height="20" rx="10"></rect>
        
        <!-- Sidebar -->
        <rect fill="#FFFFFF" x="0" y="60" width="200" height="615"></rect>
        <rect fill="#F3F4F6" x="20" y="100" width="160" height="40" rx="8"></rect>
        <rect fill="#E5E7EB" x="20" y="160" width="160" height="20" rx="4"></rect>
        <rect fill="#E5E7EB" x="20" y="200" width="160" height="20" rx="4"></rect>
        <rect fill="#E5E7EB" x="20" y="240" width="160" height="20" rx="4"></rect>
        <rect fill="#E5E7EB" x="20" y="280" width="160" height="20" rx="4"></rect>
        <rect fill="#E5E7EB" x="20" y="320" width="160" height="20" rx="4"></rect>
        
        <!-- Main Content Area -->
        <rect fill="#F3F4F6" x="220" y="80" width="960" height="40" rx="8"></rect>
        
        <!-- Charts & Cards -->
        <rect fill="#FFFFFF" x="220" y="140" width="300" height="200" rx="8"></rect>
        <rect fill="#E5E7EB" x="240" y="160" width="100" height="20" rx="4"></rect>
        <rect fill="#F3F4F6" x="240" y="190" width="260" height="130" rx="4"></rect>
        
        <rect fill="#FFFFFF" x="540" y="140" width="300" height="200" rx="8"></rect>
        <rect fill="#E5E7EB" x="560" y="160" width="100" height="20" rx="4"></rect>
        <rect fill="#F3F4F6" x="560" y="190" width="260" height="130" rx="4"></rect>
        
        <rect fill="#FFFFFF" x="860" y="140" width="300" height="200" rx="8"></rect>
        <rect fill="#E5E7EB" x="880" y="160" width="100" height="20" rx="4"></rect>
        <rect fill="#F3F4F6" x="880" y="190" width="260" height="130" rx="4"></rect>
        
        <!-- Table section -->
        <rect fill="#FFFFFF" x="220" y="360" width="940" height="295" rx="8"></rect>
        <rect fill="#E5E7EB" x="240" y="380" width="150" height="20" rx="4"></rect>
        
        <!-- Table header -->
        <rect fill="#F9FAFB" x="240" y="420" width="900" height="40"></rect>
        <rect fill="#E5E7EB" x="260" y="430" width="100" height="20" rx="4"></rect>
        <rect fill="#E5E7EB" x="380" y="430" width="100" height="20" rx="4"></rect>
        <rect fill="#E5E7EB" x="500" y="430" width="100" height="20" rx="4"></rect>
        <rect fill="#E5E7EB" x="620" y="430" width="100" height="20" rx="4"></rect>
        <rect fill="#E5E7EB" x="740" y="430" width="100" height="20" rx="4"></rect>
        
        <!-- Table rows -->
        <rect fill="#FFFFFF" x="240" y="460" width="900" height="40"></rect>
        <rect fill="#F3F4F6" x="260" y="470" width="80" height="20" rx="4"></rect>
        <rect fill="#F3F4F6" x="380" y="470" width="80" height="20" rx="4"></rect>
        <rect fill="#F3F4F6" x="500" y="470" width="80" height="20" rx="4"></rect>
        <rect fill="#F3F4F6" x="620" y="470" width="80" height="20" rx="4"></rect>
        <rect fill="#22D3EE" x="740" y="470" width="80" height="20" rx="4"></rect>
        
        <rect fill="#FFFFFF" x="240" y="500" width="900" height="40"></rect>
        <rect fill="#F3F4F6" x="260" y="510" width="80" height="20" rx="4"></rect>
        <rect fill="#F3F4F6" x="380" y="510" width="80" height="20" rx="4"></rect>
        <rect fill="#F3F4F6" x="500" y="510" width="80" height="20" rx="4"></rect>
        <rect fill="#F3F4F6" x="620" y="510" width="80" height="20" rx="4"></rect>
        <rect fill="#4F46E5" x="740" y="510" width="80" height="20" rx="4"></rect>
        
        <rect fill="#FFFFFF" x="240" y="540" width="900" height="40"></rect>
        <rect fill="#F3F4F6" x="260" y="550" width="80" height="20" rx="4"></rect>
        <rect fill="#F3F4F6" x="380" y="550" width="80" height="20" rx="4"></rect>
        <rect fill="#F3F4F6" x="500" y="550" width="80" height="20" rx="4"></rect>
        <rect fill="#F3F4F6" x="620" y="550" width="80" height="20" rx="4"></rect>
        <rect fill="#22D3EE" x="740" y="550" width="80" height="20" rx="4"></rect>
        
        <rect fill="#FFFFFF" x="240" y="580" width="900" height="40"></rect>
        <rect fill="#F3F4F6" x="260" y="590" width="80" height="20" rx="4"></rect>
        <rect fill="#F3F4F6" x="380" y="590" width="80" height="20" rx="4"></rect>
        <rect fill="#F3F4F6" x="500" y="590" width="80" height="20" rx="4"></rect>
        <rect fill="#F3F4F6" x="620" y="590" width="80" height="20" rx="4"></rect>
        <rect fill="#4F46E5" x="740" y="590" width="80" height="20" rx="4"></rect>
    </g>
</svg>