<svg width="80" height="80" viewBox="0 0 80 80" fill="none" xmlns="http://www.w3.org/2000/svg">
  <rect width="80" height="80" rx="8" fill="#FB7185" fill-opacity="0.1"/>
  <path d="M20 10C20 7.79086 21.7909 6 24 6H48L60 18V70C60 72.2091 58.2091 74 56 74H24C21.7909 74 20 72.2091 20 70V10Z" fill="white" stroke="#FB7185" stroke-width="2"/>
  <path d="M48 6L60 18H48V6Z" fill="#FFEBEE" stroke="#FB7185" stroke-width="2"/>
  <rect x="30" y="30" width="30" height="2" rx="1" fill="#FB7185" fill-opacity="0.5"/>
  <rect x="30" y="36" width="25" height="2" rx="1" fill="#FB7185" fill-opacity="0.5"/>
  <rect x="30" y="42" width="20" height="2" rx="1" fill="#FB7185" fill-opacity="0.5"/>
  <rect x="30" y="48" width="15" height="2" rx="1" fill="#FB7185" fill-opacity="0.5"/>
  <rect x="30" y="54" width="10" height="2" rx="1" fill="#FB7185" fill-opacity="0.5"/>
</svg>