<?xml version="1.0" encoding="UTF-8"?>
<svg width="200px" height="200px" viewBox="0 0 200 200" version="1.1" xmlns="http://www.w3.org/2000/svg">
    <title>Document Illustration</title>
    <g stroke="none" stroke-width="1" fill="none" fill-rule="evenodd">
        <rect fill="#F5F7FF" x="0" y="0" width="200" height="200"></rect>
        <g transform="translate(50.000000, 30.000000)">
            <path d="M80,0 L20,0 C8.954305,0 0,8.954305 0,20 L0,120 C0,131.045695 8.954305,140 20,140 L80,140 C91.045695,140 100,131.045695 100,120 L100,20 C100,8.954305 91.045695,0 80,0 Z" fill="#FFFFFF"></path>
            <rect fill="#4F46E5" x="20" y="20" width="60" height="5" rx="2.5"></rect>
            <rect fill="#4F46E5" x="20" y="35" width="60" height="5" rx="2.5"></rect>
            <rect fill="#4F46E5" x="20" y="50" width="40" height="5" rx="2.5"></rect>
            <rect fill="#22D3EE" x="20" y="80" width="30" height="30" rx="4"></rect>
            <rect fill="#4F46E5" x="60" y="80" width="20" height="5" rx="2.5"></rect>
            <rect fill="#4F46E5" x="60" y="95" width="20" height="5" rx="2.5"></rect>
            <rect fill="#4F46E5" x="60" y="110" width="20" height="5" rx="2.5"></rect>
        </g>
    </g>
</svg>