<?xml version="1.0" encoding="UTF-8"?>
<svg width="200px" height="200px" viewBox="0 0 200 200" version="1.1" xmlns="http://www.w3.org/2000/svg">
    <title>Robot Assistant Illustration</title>
    <g stroke="none" stroke-width="1" fill="none" fill-rule="evenodd">
        <rect fill="#F5F7FF" x="0" y="0" width="200" height="200"></rect>
        <g transform="translate(50.000000, 30.000000)">
            <!-- Robot Head -->
            <rect fill="#4F46E5" x="20" y="0" width="60" height="50" rx="10"></rect>
            <!-- Eyes -->
            <circle fill="#22D3EE" cx="40" cy="20" r="8"></circle>
            <circle fill="#22D3EE" cx="60" cy="20" r="8"></circle>
            <circle fill="#FFFFFF" cx="43" cy="18" r="3"></circle>
            <circle fill="#FFFFFF" cx="63" cy="18" r="3"></circle>
            <!-- Mouth -->
            <rect fill="#FFFFFF" x="35" y="35" width="30" height="5" rx="2.5"></rect>
            <!-- Antenna -->
            <rect fill="#4F46E5" x="48" y="-10" width="4" height="10" rx="2"></rect>
            <circle fill="#22D3EE" cx="50" cy="-10" r="5"></circle>
            <!-- Body -->
            <rect fill="#4F46E5" x="30" y="50" width="40" height="60" rx="5"></rect>
            <!-- Control Panel -->
            <rect fill="#FFFFFF" x="40" y="60" width="20" height="30" rx="2"></rect>
            <circle fill="#22D3EE" cx="45" cy="70" r="3"></circle>
            <circle fill="#22D3EE" cx="55" cy="70" r="3"></circle>
            <rect fill="#22D3EE" x="42" y="80" width="16" height="3" rx="1.5"></rect>
            <!-- Arms -->
            <rect fill="#4F46E5" x="10" y="60" width="20" height="5" rx="2.5"></rect>
            <rect fill="#4F46E5" x="70" y="60" width="20" height="5" rx="2.5"></rect>
            <circle fill="#22D3EE" cx="10" cy="62.5" r="5"></circle>
            <circle fill="#22D3EE" cx="90" cy="62.5" r="5"></circle>
            <!-- Legs -->
            <rect fill="#4F46E5" x="35" y="110" width="10" height="20" rx="3"></rect>
            <rect fill="#4F46E5" x="55" y="110" width="10" height="20" rx="3"></rect>
            <rect fill="#22D3EE" x="30" y="130" width="20" height="5" rx="2.5"></rect>
            <rect fill="#22D3EE" x="50" y="130" width="20" height="5" rx="2.5"></rect>
        </g>
    </g>
</svg>