<?xml version="1.0" encoding="UTF-8"?>
<svg width="200px" height="200px" viewBox="0 0 200 200" version="1.1" xmlns="http://www.w3.org/2000/svg">
    <g stroke="none" stroke-width="1" fill="none" fill-rule="evenodd">
        <!-- Robot Body -->
        <rect fill="#4F46E5" x="50" y="70" width="100" height="90" rx="10"></rect>
        
        <!-- Robot Head -->
        <rect fill="#4F46E5" x="65" y="30" width="70" height="50" rx="10"></rect>
        
        <!-- Robot Eyes -->
        <circle fill="#FFFFFF" cx="85" cy="55" r="10"></circle>
        <circle fill="#FFFFFF" cx="115" cy="55" r="10"></circle>
        <circle fill="#000000" cx="85" cy="55" r="5"></circle>
        <circle fill="#000000" cx="115" cy="55" r="5"></circle>
        
        <!-- Robot Mouth -->
        <rect fill="#FFFFFF" x="80" y="75" width="40" height="5" rx="2.5"></rect>
        
        <!-- Robot Antenna -->
        <rect fill="#4F46E5" x="95" y="15" width="10" height="15" rx="5"></rect>
        <circle fill="#FF5757" cx="100" cy="15" r="5"></circle>
        
        <!-- Robot Arms -->
        <rect fill="#4F46E5" x="30" y="80" width="20" height="10" rx="5"></rect>
        <rect fill="#4F46E5" x="150" y="80" width="20" height="10" rx="5"></rect>
        
        <!-- Robot Legs -->
        <rect fill="#4F46E5" x="60" y="160" width="20" height="30" rx="5"></rect>
        <rect fill="#4F46E5" x="120" y="160" width="20" height="30" rx="5"></rect>
        
        <!-- Robot Panel -->
        <rect fill="#FFFFFF" x="65" y="90" width="70" height="25" rx="5"></rect>
        <circle fill="#62C6FF" cx="80" cy="102.5" r="5"></circle>
        <circle fill="#FF5757" cx="100" cy="102.5" r="5"></circle>
        <circle fill="#62FF8E" cx="120" cy="102.5" r="5"></circle>
    </g>
</svg>