<?xml version="1.0" encoding="UTF-8"?>
<svg width="200px" height="200px" viewBox="0 0 200 200" version="1.1" xmlns="http://www.w3.org/2000/svg">
    <g stroke="none" stroke-width="1" fill="none" fill-rule="evenodd">
        <!-- Shield Base -->
        <path d="M100,20 C133.333,40 166.667,40 200,20 L200,110 C200,143.333 166.667,176.667 100,200 C33.333,176.667 0,143.333 0,110 L0,20 C33.333,40 66.667,40 100,20 Z" fill="#34D399"></path>
        
        <!-- Shield Inner -->
        <path d="M100,40 C126.667,56 153.333,56 180,40 L180,110 C180,136.667 153.333,163.333 100,182 C46.667,163.333 20,136.667 20,110 L20,40 C46.667,56 73.333,56 100,40 Z" fill="#FFFFFF"></path>
        
        <!-- Checkmark -->
        <path d="M70,100 L90,120 L130,80" stroke="#34D399" stroke-width="10" stroke-linecap="round" stroke-linejoin="round"></path>
        
        <!-- Stars -->
        <path d="M40,50 L43,56 L50,56 L45,60 L47,66 L40,62 L33,66 L35,60 L30,56 L37,56 L40,50 Z" fill="#FCD34D"></path>
        <path d="M160,50 L163,56 L170,56 L165,60 L167,66 L160,62 L153,66 L155,60 L150,56 L157,56 L160,50 Z" fill="#FCD34D"></path>
        <path d="M100,150 L103,156 L110,156 L105,160 L107,166 L100,162 L93,166 L95,160 L90,156 L97,156 L100,150 Z" fill="#FCD34D"></path>
    </g>
</svg>