<?xml version="1.0" encoding="UTF-8"?>
<svg width="200px" height="200px" viewBox="0 0 200 200" version="1.1" xmlns="http://www.w3.org/2000/svg">
    <g stroke="none" stroke-width="1" fill="none" fill-rule="evenodd">
        <!-- Background Circle -->
        <circle fill="#ECFDF5" cx="100" cy="100" r="80"></circle>
        
        <!-- Document -->
        <rect fill="#FFFFFF" x="60" y="40" width="80" height="100" rx="4"></rect>
        <rect fill="#D1FAE5" x="70" y="50" width="60" height="10" rx="2"></rect>
        <rect fill="#D1FAE5" x="70" y="70" width="60" height="10" rx="2"></rect>
        <rect fill="#D1FAE5" x="70" y="90" width="60" height="10" rx="2"></rect>
        <rect fill="#D1FAE5" x="70" y="110" width="30" height="10" rx="2"></rect>
        
        <!-- Checkmark Circle -->
        <circle fill="#10B981" cx="140" cy="120" r="25"></circle>
        <path d="M130,120 L138,128 L150,116" stroke="#FFFFFF" stroke-width="4" stroke-linecap="round" stroke-linejoin="round"></path>
        
        <!-- Person Icon -->
        <circle fill="#6EE7B7" cx="40" cy="100" r="15"></circle>
        <circle fill="#FFFFFF" cx="40" cy="93" r="5"></circle>
        <path d="M25,115 C25,105 55,105 55,115" fill="#6EE7B7"></path>
        
        <!-- Magnifying Glass -->
        <circle fill="none" stroke="#10B981" stroke-width="3" cx="140" cy="60" r="15"></circle>
        <line x1="150" y1="70" x2="160" y2="80" stroke="#10B981" stroke-width="3" stroke-linecap="round"></line>
        
        <!-- Number -->
        <circle fill="#FFFFFF" cx="40" cy="40" r="15"></circle>
        <text font-family="Arial" font-size="20" font-weight="bold" fill="#10B981">
            <tspan x="34" y="47">3</tspan>
        </text>
    </g>
</svg>